<svg width="56" height="56" viewBox="0 0 56 56" fill="none" xmlns="http://www.w3.org/2000/svg">
<rect x="7.5" y="7.5" width="41" height="41" stroke="#F23040"/>
<path d="M32.7305 19.1893H40.2992V21.0322H32.7305V19.1893ZM28 34.3869C27.646 35.0589 27.1405 35.6393 26.5234 36.0822C25.8781 36.5307 25.1617 36.8588 24.4016 37.0502C23.6063 37.2633 22.7858 37.3682 21.9625 37.3619H12.9062V18.708H21.7109C22.6023 18.708 23.4117 18.79 24.15 18.9432C24.8828 19.0963 25.5063 19.3588 26.0313 19.7143C26.5508 20.0697 26.9609 20.5455 27.2508 21.1361C27.5352 21.7213 27.6828 22.4541 27.6828 23.3236C27.6828 24.2643 27.4695 25.0408 27.043 25.6697C26.6109 26.2986 25.9875 26.8072 25.1398 27.2064C26.2938 27.5346 27.1414 28.1197 27.6992 28.94C28.268 29.7713 28.5469 30.7666 28.5469 31.9369C28.5469 32.8885 28.3664 33.7033 28 34.3869ZM43.2469 31.4994H33.4906C33.4906 32.5604 33.857 33.5775 34.4094 34.1244C34.9672 34.6658 35.7656 34.9393 36.8102 34.9393C37.5648 34.9393 38.2047 34.7479 38.7516 34.3705C39.293 33.9932 39.6211 33.5939 39.7414 33.1783H43.0117C42.4867 34.8025 41.6883 35.9619 40.6055 36.6619C39.5336 37.3619 38.2211 37.7119 36.6953 37.7119C35.6289 37.7119 34.6719 37.5369 33.8133 37.2033C32.9875 36.8807 32.2438 36.3885 31.6313 35.7541C31.0273 35.1026 30.5605 34.3364 30.2586 33.501C29.925 32.5768 29.7609 31.6033 29.7719 30.6244C29.7719 29.6127 29.9414 28.6721 30.2695 27.7971C30.8984 26.0963 32.2055 24.7346 33.8734 24.0291C34.7648 23.6572 35.7219 23.4713 36.6898 23.4822C37.8383 23.4822 38.8336 23.701 39.6977 24.1494C40.5295 24.5776 41.2517 25.1914 41.8086 25.9432C42.3609 26.6924 42.7492 27.5455 42.9953 28.508C43.2305 29.4541 43.3125 30.4494 43.2469 31.4994ZM36.575 26.2713C35.9844 26.2713 35.4867 26.3752 35.1039 26.5775C34.7211 26.7799 34.4039 27.0314 34.1633 27.3213C33.9341 27.6011 33.7647 27.925 33.6656 28.2729C33.5781 28.5627 33.518 28.858 33.4961 29.1588H39.5391C39.4516 28.2127 39.1234 27.5127 38.6859 27.0205C38.2266 26.5338 37.4883 26.2713 36.575 26.2713ZM22.9852 25.7189C23.4609 25.3744 23.6906 24.8057 23.6906 24.0236C23.707 23.6518 23.6305 23.2854 23.4664 22.9518C23.3188 22.6838 23.1 22.4596 22.832 22.301C22.5542 22.1325 22.2456 22.0209 21.9242 21.9729C21.5742 21.9072 21.2188 21.8744 20.8688 21.8799H17.0242V26.2385H21.1859C21.9023 26.2439 22.5094 26.0689 22.9852 25.7189ZM23.6305 29.6564C23.0945 29.2463 22.3781 29.0439 21.4867 29.0439H17.0133V34.1846H21.3992C21.8094 34.1846 22.1867 34.1463 22.5531 34.0697C22.9195 33.9932 23.2477 33.8619 23.5266 33.676C23.8055 33.4955 24.0297 33.2494 24.1992 32.9322C24.3633 32.615 24.4453 32.2104 24.4453 31.7236C24.4453 30.7557 24.1719 30.0721 23.6305 29.6564Z" fill="#F23040"/>
</svg>
