<svg width="56" height="56" viewBox="0 0 56 56" fill="none" xmlns="http://www.w3.org/2000/svg">
<rect x="7.5" y="7.5" width="41" height="41" stroke="#F23040"/>
<path d="M20.8817 40.3239H15.6886V23.6202H20.8817V40.3239ZM18.2873 21.3364C17.692 21.3364 17.1101 21.1599 16.6151 20.8291C16.1201 20.4984 15.7343 20.0283 15.5065 19.4783C15.2786 18.9283 15.219 18.3231 15.3352 17.7392C15.4513 17.1553 15.738 16.619 16.159 16.198C16.5799 15.7771 17.1162 15.4904 17.7001 15.3742C18.284 15.2581 18.8892 15.3177 19.4392 15.5455C19.9892 15.7734 20.4593 16.1591 20.7901 16.6541C21.1208 17.1491 21.2973 17.7311 21.2973 18.3264C21.293 19.9889 19.9455 21.3364 18.2873 21.3364ZM40.3242 40.3239H35.1355V32.1995C35.1355 30.2614 35.1005 27.772 32.4361 27.772C29.7367 27.772 29.3211 29.8808 29.3211 32.0595V40.3239H24.1367V23.6202H29.1155V25.9039H29.1855C29.8767 24.5914 31.5698 23.2045 34.0986 23.2045C39.3573 23.2045 40.3242 26.6652 40.3242 31.1627V40.3239Z" fill="#F23040"/>
</svg>
